<svg id="visual" viewBox="0 0 960 540" width="960" height="540" xmlns="http://www.w3.org/2000/svg" xmlns:xlink="http://www.w3.org/1999/xlink" version="1.1"><rect x="0" y="0" width="960" height="540" fill="#f7f7f7"></rect><defs><linearGradient id="grad1_0" x1="43.8%" y1="0%" x2="100%" y2="100%"><stop offset="14.444444444444446%" stop-color="#f7f7f7" stop-opacity="1"></stop><stop offset="85.55555555555554%" stop-color="#f7f7f7" stop-opacity="1"></stop></linearGradient></defs><defs><linearGradient id="grad2_0" x1="0%" y1="0%" x2="56.3%" y2="100%"><stop offset="14.444444444444446%" stop-color="#f7f7f7" stop-opacity="1"></stop><stop offset="85.55555555555554%" stop-color="#f7f7f7" stop-opacity="1"></stop></linearGradient></defs><g transform="translate(960, 0)"><path d="M0 270C-39.3 267.5 -78.6 265.1 -100.3 242.1C-121.9 219 -126 175.5 -152 152C-178.1 128.6 -226.1 125.3 -249.4 103.3C-272.8 81.3 -271.4 40.7 -270 0L0 0Z" fill="#ffb8b8"></path></g><g transform="translate(0, 540)"><path d="M0 -270C25.1 -242.4 50.1 -214.8 85.3 -206C120.6 -197.3 166 -207.4 190.9 -190.9C215.8 -174.5 220.3 -131.5 230 -95.3C239.8 -59 254.9 -29.5 270 0L0 0Z" fill="#ffb8b8"></path></g></svg>