<svg id="visual" viewBox="0 0 675 900" width="675" height="900" xmlns="http://www.w3.org/2000/svg" xmlns:xlink="http://www.w3.org/1999/xlink" version="1.1"><rect width="675" height="900" fill="#222831"></rect><g><g transform="translate(163 830)"><path d="M0 -81.9L70.9 -40.9L70.9 40.9L0 81.9L-70.9 40.9L-70.9 -40.9Z" fill="#30475E"></path></g><g transform="translate(477 694)"><path d="M0 -68L58.9 -34L58.9 34L0 68L-58.9 34L-58.9 -34Z" fill="#30475E"></path></g><g transform="translate(7 635)"><path d="M0 -52L45 -26L45 26L0 52L-45 26L-45 -26Z" fill="#30475E"></path></g><g transform="translate(164 45)"><path d="M0 -69L59.8 -34.5L59.8 34.5L0 69L-59.8 34.5L-59.8 -34.5Z" fill="#30475E"></path></g><g transform="translate(531 75)"><path d="M0 -57L49.4 -28.5L49.4 28.5L0 57L-49.4 28.5L-49.4 -28.5Z" fill="#30475E"></path></g><g transform="translate(658 437)"><path d="M0 -58L50.2 -29L50.2 29L0 58L-50.2 29L-50.2 -29Z" fill="#30475E"></path></g><g transform="translate(453 326)"><path d="M0 -56L48.5 -28L48.5 28L0 56L-48.5 28L-48.5 -28Z" fill="#30475E"></path></g><g transform="translate(49 300)"><path d="M0 -63L54.6 -31.5L54.6 31.5L0 63L-54.6 31.5L-54.6 -31.5Z" fill="#30475E"></path></g><g transform="translate(645 714)"><path d="M0 -59L51.1 -29.5L51.1 29.5L0 59L-51.1 29.5L-51.1 -29.5Z" fill="#30475E"></path></g></g></svg>