<svg id="visual" viewBox="0 0 960 540" width="960" height="540" xmlns="http://www.w3.org/2000/svg" xmlns:xlink="http://www.w3.org/1999/xlink" version="1.1"><path d="M0 467L22.8 463.3C45.7 459.7 91.3 452.3 137 447.7C182.7 443 228.3 441 274 440.8C319.7 440.7 365.3 442.3 411.2 444C457 445.7 503 447.3 548.8 446.3C594.7 445.3 640.3 441.7 686 443.3C731.7 445 777.3 452 823 453.3C868.7 454.7 914.3 450.3 937.2 448.2L960 446L960 541L937.2 541C914.3 541 868.7 541 823 541C777.3 541 731.7 541 686 541C640.3 541 594.7 541 548.8 541C503 541 457 541 411.2 541C365.3 541 319.7 541 274 541C228.3 541 182.7 541 137 541C91.3 541 45.7 541 22.8 541L0 541Z" fill="#222831" stroke-linecap="round" stroke-linejoin="miter"></path></svg>